<svg xmlns="http://www.w3.org/2000/svg" xmlns:xlink="http://www.w3.org/1999/xlink" width="500" zoomAndPan="magnify" viewBox="0 0 375 374.999991" height="500" preserveAspectRatio="xMidYMid meet" version="1.0"><defs><g/><clipPath id="92b636a92c"><path d="M 26.886719 37.5 L 348 37.5 L 348 337.5 L 26.886719 337.5 Z M 26.886719 37.5 " clip-rule="nonzero"/></clipPath><clipPath id="55af51013d"><path d="M 57.40625 121.707031 L 317.65625 121.707031 L 317.65625 252.953125 L 57.40625 252.953125 Z M 57.40625 121.707031 " clip-rule="nonzero"/></clipPath><clipPath id="b3d533c9a6"><path d="M 58.90625 121.707031 L 316.085938 121.707031 C 316.484375 121.707031 316.863281 121.863281 317.144531 122.144531 C 317.425781 122.425781 317.585938 122.808594 317.585938 123.207031 L 317.585938 251.792969 C 317.585938 252.191406 317.425781 252.570312 317.144531 252.851562 C 316.863281 253.132812 316.484375 253.292969 316.085938 253.292969 L 58.90625 253.292969 C 58.507812 253.292969 58.125 253.132812 57.84375 252.851562 C 57.5625 252.570312 57.40625 252.191406 57.40625 251.792969 L 57.40625 123.207031 C 57.40625 122.808594 57.5625 122.425781 57.84375 122.144531 C 58.125 121.863281 58.507812 121.707031 58.90625 121.707031 Z M 58.90625 121.707031 " clip-rule="nonzero"/></clipPath></defs><g clip-path="url(#92b636a92c)"><path fill="#f2f2f2" d="M 26.886719 37.5 L 347.980469 37.5 L 347.980469 337.5 L 26.886719 337.5 Z M 26.886719 37.5 " fill-opacity="1" fill-rule="nonzero"/></g><g clip-path="url(#55af51013d)"><g clip-path="url(#b3d533c9a6)"><path stroke-linecap="butt" transform="matrix(0.75, 0, 0, 0.75, 57.405822, 121.706658)" fill="none" stroke-linejoin="miter" d="M 2.000571 0.000497123 L 344.906844 0.000497123 C 345.438094 0.000497123 345.943302 0.20883 346.318302 0.58383 C 346.693302 0.958831 346.906844 1.469247 346.906844 2.000497 L 346.906844 173.448425 C 346.906844 173.979675 346.693302 174.484884 346.318302 174.859884 C 345.943302 175.234884 345.438094 175.448425 344.906844 175.448425 L 2.000571 175.448425 C 1.469321 175.448425 0.958905 175.234884 0.583905 174.859884 C 0.208905 174.484884 0.000571293 173.979675 0.000571293 173.448425 L 0.000571293 2.000497 C 0.000571293 1.469247 0.208905 0.958831 0.583905 0.58383 C 0.958905 0.20883 1.469321 0.000497123 2.000571 0.000497123 Z M 2.000571 0.000497123 " stroke="#000000" stroke-width="4" stroke-opacity="1" stroke-miterlimit="4"/></g></g><g fill="#000000" fill-opacity="1"><g transform="translate(95.306196, 206.557437)"><g><path d="M 19.59375 -40.796875 C 19.800781 -39.816406 21.113281 -39.328125 23.53125 -39.328125 L 27.46875 -22.109375 L 30.90625 -22.109375 L 30.90625 -21.609375 L 27.953125 -21.125 L 27.953125 -20.640625 C 28.941406 -20.640625 29.4375 -20.3125 29.4375 -19.65625 L 33.359375 -19.65625 L 33.359375 -19.15625 C 33.359375 -18.425781 31.722656 -17.769531 28.453125 -17.1875 L 29.4375 -14.234375 L 28.9375 -12.765625 L 29.4375 -9.8125 L 28.9375 -9.3125 L 29.4375 -9.3125 L 28.9375 -8.828125 L 29.4375 -2.921875 L 29.4375 0.03125 L 28.9375 -0.46875 L 28.453125 -0.46875 L 29.921875 6.921875 L 28.9375 6.921875 C 28.9375 5.929688 28.609375 5.4375 27.953125 5.4375 L 27.953125 5.9375 L 28.453125 7.40625 L 27.953125 7.40625 L 27.46875 6.921875 L 26.96875 6.921875 C 26.96875 7.898438 26.640625 8.390625 25.984375 8.390625 L 23.53125 0.03125 L 23.03125 0.03125 L 23.03125 2 L 22.546875 2 L 21.5625 -3.90625 L 23.03125 -2.921875 L 23.03125 -3.421875 C 22.757812 -6.367188 22.269531 -7.84375 21.5625 -7.84375 L 22.046875 -8.328125 L 22.046875 -9.8125 L 21.0625 -9.8125 L 21.0625 -8.328125 L 20.578125 -8.328125 L 20.578125 -10.296875 L 21.0625 -10.796875 L 20.578125 -10.796875 L 20.078125 -10.296875 L 20.078125 -12.265625 L 20.578125 -12.265625 L 21.0625 -11.78125 L 21.5625 -11.78125 L 21.0625 -12.265625 L 21.0625 -15.21875 L 10.25 -12.765625 L 10.25 -11.78125 L 13.6875 -12.765625 L 15.65625 -12.265625 L 18.109375 -12.765625 L 18.109375 -11.78125 C 11.222656 -10.539062 7.78125 -8.898438 7.78125 -6.859375 C 6.914062 -3.253906 5.929688 -0.957031 4.828125 0.03125 L 4.828125 1.015625 L 3.359375 1.015625 L 2.859375 0.515625 L 2.375 0.515625 L 2.375 1.015625 L 0.890625 0.03125 L 1.875 -2.921875 L 1.390625 -2.921875 C 0.398438 -2.921875 -0.09375 -1.609375 -0.09375 1.015625 L -1.078125 0.03125 L -0.578125 -2.921875 L -2.046875 -4.40625 L 6.3125 -24.5625 L 6.796875 -24.5625 C 6.796875 -23.582031 7.125 -23.09375 7.78125 -23.09375 L 8.28125 -25.546875 L 7.78125 -25.0625 L 7.296875 -25.0625 L 7.296875 -27.03125 L 7.78125 -29.484375 L 8.28125 -29 L 8.765625 -29 L 8.28125 -29.484375 L 8.28125 -29.984375 L 9.265625 -31.953125 L 9.75 -31.953125 L 10.25 -31.453125 L 10.734375 -31.453125 L 10.734375 -31.953125 C 10.734375 -32.609375 10.242188 -32.9375 9.265625 -32.9375 L 11.71875 -39.8125 L 13.6875 -39.8125 L 13.203125 -39.328125 L 13.203125 -38.828125 C 15.472656 -40.140625 17.601562 -40.796875 19.59375 -40.796875 Z M 16.640625 -29.484375 L 12.703125 -19.15625 L 13.6875 -19.15625 C 16.96875 -19.15625 18.769531 -20.140625 19.09375 -22.109375 L 17.125 -29.484375 Z M 12.21875 -26.53125 L 11.234375 -23.09375 L 10.734375 -23.578125 L 10.25 -23.578125 L 10.734375 -21.609375 L 11.234375 -21.609375 L 12.703125 -26.046875 L 12.703125 -26.53125 Z M 6.796875 -22.109375 L 6.3125 -21.609375 L 6.3125 -20.640625 L 6.796875 -20.640625 L 7.296875 -22.109375 Z M 9.75 -20.140625 L 9.265625 -18.171875 L 9.75 -18.171875 L 10.25 -18.671875 L 10.25 -20.140625 Z M 5.328125 -19.65625 L 4.828125 -17.6875 L 5.328125 -17.6875 L 6.3125 -19.65625 Z M 13.6875 -18.171875 L 13.6875 -17.6875 L 14.671875 -17.6875 C 17.617188 -18.007812 19.09375 -18.5 19.09375 -19.15625 L 18.609375 -19.15625 Z M 20.578125 -7.34375 L 21.5625 -7.34375 L 21.5625 -4.40625 L 21.0625 -4.40625 Z M 27.46875 -3.90625 L 27.46875 -2.921875 L 27.953125 -0.953125 L 28.453125 -0.953125 L 28.453125 -1.9375 L 27.953125 -3.90625 Z M 22.546875 -2.4375 L 22.546875 -1.453125 L 24.015625 -1.9375 L 24.015625 -2.921875 Z M 22.546875 -2.4375 "/></g></g></g><g fill="#000000" fill-opacity="1"><g transform="translate(130.026979, 206.557437)"><g><path d="M 20.984375 -37.734375 L 21.421875 -37.25 L 21.90625 -37.25 L 21.96875 -37.734375 C 27.382812 -36.347656 29.957031 -34.378906 29.6875 -31.828125 L 30.328125 -28.875 L 29.34375 -28.875 C 29.476562 -30.1875 29.21875 -30.84375 28.5625 -30.84375 L 28.0625 -30.84375 L 28.328125 -28.390625 L 28.25 -27.890625 L 27.265625 -27.890625 C 26.609375 -27.890625 26.335938 -28.382812 26.453125 -29.375 L 25.90625 -28.875 L 25.40625 -28.875 C 23.769531 -30.1875 22.195312 -30.84375 20.6875 -30.84375 C 17.40625 -30.84375 13.597656 -27.398438 9.265625 -20.515625 L 7.703125 -15.109375 C 7.210938 -10.742188 9.003906 -7.628906 13.078125 -5.765625 L 12.96875 -4.78125 L 11.984375 -4.78125 L 11.921875 -4.28125 L 12.90625 -4.28125 C 15.238281 -4.28125 18.671875 -7.234375 23.203125 -13.140625 L 23.265625 -13.625 L 22.78125 -13.625 C 20.175781 -10.476562 17.789062 -8.1875 15.625 -6.75 L 15.140625 -6.75 L 21.234375 -13.140625 L 17.796875 -13.140625 C 17.867188 -13.796875 17.414062 -14.125 16.4375 -14.125 L 16 -14.609375 L 16.0625 -15.109375 C 16.113281 -15.765625 17.800781 -16.253906 21.125 -16.578125 L 21.234375 -17.5625 L 20.6875 -17.078125 L 17.734375 -17.078125 L 15.15625 -20.515625 L 15.71875 -21.015625 L 15.75 -21.5 L 21.125 -21.015625 L 34.0625 -22.484375 L 34.125 -22.984375 C 32.476562 -22.984375 31.695312 -23.304688 31.78125 -23.953125 L 32.265625 -23.953125 L 32.703125 -23.46875 L 33.25 -23.953125 L 33.734375 -23.953125 C 37.234375 -22.953125 38.941406 -22.132812 38.859375 -21.5 L 38.828125 -21.015625 L 38.28125 -20.515625 L 38.234375 -20.03125 L 40.1875 -20.03125 L 40.078125 -19.046875 L 39.59375 -19.046875 L 31.625 -18.0625 L 31.578125 -17.5625 L 32.0625 -17.5625 L 36.546875 -18.0625 L 36.4375 -17.078125 C 33.15625 -17.078125 31.367188 -15.765625 31.078125 -13.140625 L 28.734375 -5.265625 L 29.203125 -4.78125 L 29.140625 -4.28125 L 28.359375 -1.828125 L 28.453125 2.109375 L 27.375 3.09375 L 27.78125 3.59375 C 26.425781 4.007812 25.691406 4.828125 25.578125 6.046875 L 24.109375 6.046875 C 23.453125 6.046875 23.273438 4.570312 23.578125 1.625 L 23.09375 1.625 L 22.71875 5.0625 L 21.234375 5.0625 L 21.5 2.609375 L 21.390625 -0.84375 L 20.40625 -0.84375 C 18.53125 0.46875 16.648438 1.125 14.765625 1.125 L 12.296875 1.125 L 11.453125 0.140625 L 11.484375 -0.34375 L 12.46875 -0.34375 L 12.53125 -0.84375 C 5.71875 -0.84375 2.03125 -3.132812 1.46875 -7.71875 C 1.082031 -9.84375 0.890625 -11.96875 0.890625 -14.09375 C 0.890625 -15.40625 0.96875 -16.726562 1.125 -18.0625 L 1.21875 -19.046875 C 1.507812 -21.546875 2.6875 -24.820312 4.75 -28.875 L 5.234375 -28.875 L 5.125 -27.890625 L 3.265625 -24.453125 L 3.234375 -23.953125 L 3.734375 -23.953125 C 4.054688 -26.953125 7.25 -30.726562 13.3125 -35.28125 L 13.796875 -35.28125 L 13.859375 -35.765625 L 13.375 -35.765625 L 11.828125 -35.28125 C 12.796875 -36.914062 15.847656 -37.734375 20.984375 -37.734375 Z M 10.828125 -34.78125 L 11.3125 -34.78125 L 7.5 -31.34375 L 7.546875 -31.828125 Z M 18.0625 -33.796875 L 18.03125 -33.3125 L 21.46875 -33.3125 L 21.5 -33.796875 Z M 7.5 -31.34375 L 7.40625 -30.84375 L 5.234375 -28.875 L 5.296875 -29.375 Z M 29.25 -23.46875 L 31.21875 -23.46875 L 30.125 -22.484375 Z M 14.640625 -6.75 L 15.140625 -6.75 L 14.0625 -5.765625 L 13.578125 -5.765625 Z M 17.046875 -1.828125 L 21.21875 -3.796875 L 21.328125 -4.78125 L 20.828125 -4.78125 Z M 13.453125 -0.34375 L 13.421875 0.140625 L 15.890625 0.140625 L 15.921875 -0.34375 Z M 13.453125 -0.34375 "/></g></g></g><g fill="#000000" fill-opacity="1"><g transform="translate(165.586848, 206.557437)"><g><path d="M 7.578125 -38.828125 C 8.234375 -38.828125 8.5625 -37.847656 8.5625 -35.890625 L 9.546875 -35.890625 L 11.03125 -36.875 L 11.515625 -36.375 L 9.0625 -8.828125 C 11.144531 -9.804688 16.71875 -10.953125 25.78125 -12.265625 L 26.28125 -12.265625 L 26.28125 -11.78125 C 14.800781 -9.90625 9.0625 -8.425781 9.0625 -7.34375 L 14.46875 -8.828125 L 14.46875 -8.328125 L 23.8125 -10.296875 L 23.8125 -9.8125 L 24.3125 -10.296875 L 24.796875 -10.296875 L 25.296875 -9.8125 L 27.75 -10.296875 L 29.71875 -10.296875 L 33.15625 -9.8125 L 33.15625 -9.3125 C 33.15625 -8.332031 30.695312 -7.515625 25.78125 -6.859375 L 25.78125 -6.359375 L 26.28125 -6.859375 L 26.765625 -6.859375 L 30.21875 -6.359375 L 30.703125 -6.859375 L 30.703125 -5.375 L 14.46875 -1.453125 L 4.140625 2.484375 L 2.65625 2.484375 L 0.6875 0.03125 L 0.203125 0.03125 L 0.203125 -0.46875 C 0.203125 -1.289062 0.859375 -1.78125 2.171875 -1.9375 L 2.171875 -3.421875 L 0.6875 -5.375 L 2.65625 -27.515625 L 3.15625 -27.515625 L 3.15625 -25.546875 L 2.65625 -22.109375 L 3.640625 -22.109375 L 2.65625 -15.71875 L 3.15625 -15.21875 L 2.65625 -13.25 L 2.65625 -10.796875 L 3.15625 -10.796875 L 5.125 -36.875 C 5.78125 -36.875 6.109375 -37.363281 6.109375 -38.34375 L 6.59375 -38.828125 Z M 7.578125 -38.828125 "/></g></g></g><g fill="#000000" fill-opacity="1"><g transform="translate(196.314742, 206.557437)"><g><path d="M 19.59375 -40.796875 C 19.800781 -39.816406 21.113281 -39.328125 23.53125 -39.328125 L 27.46875 -22.109375 L 30.90625 -22.109375 L 30.90625 -21.609375 L 27.953125 -21.125 L 27.953125 -20.640625 C 28.941406 -20.640625 29.4375 -20.3125 29.4375 -19.65625 L 33.359375 -19.65625 L 33.359375 -19.15625 C 33.359375 -18.425781 31.722656 -17.769531 28.453125 -17.1875 L 29.4375 -14.234375 L 28.9375 -12.765625 L 29.4375 -9.8125 L 28.9375 -9.3125 L 29.4375 -9.3125 L 28.9375 -8.828125 L 29.4375 -2.921875 L 29.4375 0.03125 L 28.9375 -0.46875 L 28.453125 -0.46875 L 29.921875 6.921875 L 28.9375 6.921875 C 28.9375 5.929688 28.609375 5.4375 27.953125 5.4375 L 27.953125 5.9375 L 28.453125 7.40625 L 27.953125 7.40625 L 27.46875 6.921875 L 26.96875 6.921875 C 26.96875 7.898438 26.640625 8.390625 25.984375 8.390625 L 23.53125 0.03125 L 23.03125 0.03125 L 23.03125 2 L 22.546875 2 L 21.5625 -3.90625 L 23.03125 -2.921875 L 23.03125 -3.421875 C 22.757812 -6.367188 22.269531 -7.84375 21.5625 -7.84375 L 22.046875 -8.328125 L 22.046875 -9.8125 L 21.0625 -9.8125 L 21.0625 -8.328125 L 20.578125 -8.328125 L 20.578125 -10.296875 L 21.0625 -10.796875 L 20.578125 -10.796875 L 20.078125 -10.296875 L 20.078125 -12.265625 L 20.578125 -12.265625 L 21.0625 -11.78125 L 21.5625 -11.78125 L 21.0625 -12.265625 L 21.0625 -15.21875 L 10.25 -12.765625 L 10.25 -11.78125 L 13.6875 -12.765625 L 15.65625 -12.265625 L 18.109375 -12.765625 L 18.109375 -11.78125 C 11.222656 -10.539062 7.78125 -8.898438 7.78125 -6.859375 C 6.914062 -3.253906 5.929688 -0.957031 4.828125 0.03125 L 4.828125 1.015625 L 3.359375 1.015625 L 2.859375 0.515625 L 2.375 0.515625 L 2.375 1.015625 L 0.890625 0.03125 L 1.875 -2.921875 L 1.390625 -2.921875 C 0.398438 -2.921875 -0.09375 -1.609375 -0.09375 1.015625 L -1.078125 0.03125 L -0.578125 -2.921875 L -2.046875 -4.40625 L 6.3125 -24.5625 L 6.796875 -24.5625 C 6.796875 -23.582031 7.125 -23.09375 7.78125 -23.09375 L 8.28125 -25.546875 L 7.78125 -25.0625 L 7.296875 -25.0625 L 7.296875 -27.03125 L 7.78125 -29.484375 L 8.28125 -29 L 8.765625 -29 L 8.28125 -29.484375 L 8.28125 -29.984375 L 9.265625 -31.953125 L 9.75 -31.953125 L 10.25 -31.453125 L 10.734375 -31.453125 L 10.734375 -31.953125 C 10.734375 -32.609375 10.242188 -32.9375 9.265625 -32.9375 L 11.71875 -39.8125 L 13.6875 -39.8125 L 13.203125 -39.328125 L 13.203125 -38.828125 C 15.472656 -40.140625 17.601562 -40.796875 19.59375 -40.796875 Z M 16.640625 -29.484375 L 12.703125 -19.15625 L 13.6875 -19.15625 C 16.96875 -19.15625 18.769531 -20.140625 19.09375 -22.109375 L 17.125 -29.484375 Z M 12.21875 -26.53125 L 11.234375 -23.09375 L 10.734375 -23.578125 L 10.25 -23.578125 L 10.734375 -21.609375 L 11.234375 -21.609375 L 12.703125 -26.046875 L 12.703125 -26.53125 Z M 6.796875 -22.109375 L 6.3125 -21.609375 L 6.3125 -20.640625 L 6.796875 -20.640625 L 7.296875 -22.109375 Z M 9.75 -20.140625 L 9.265625 -18.171875 L 9.75 -18.171875 L 10.25 -18.671875 L 10.25 -20.140625 Z M 5.328125 -19.65625 L 4.828125 -17.6875 L 5.328125 -17.6875 L 6.3125 -19.65625 Z M 13.6875 -18.171875 L 13.6875 -17.6875 L 14.671875 -17.6875 C 17.617188 -18.007812 19.09375 -18.5 19.09375 -19.15625 L 18.609375 -19.15625 Z M 20.578125 -7.34375 L 21.5625 -7.34375 L 21.5625 -4.40625 L 21.0625 -4.40625 Z M 27.46875 -3.90625 L 27.46875 -2.921875 L 27.953125 -0.953125 L 28.453125 -0.953125 L 28.453125 -1.9375 L 27.953125 -3.90625 Z M 22.546875 -2.4375 L 22.546875 -1.453125 L 24.015625 -1.9375 L 24.015625 -2.921875 Z M 22.546875 -2.4375 "/></g></g></g><g fill="#000000" fill-opacity="1"><g transform="translate(231.035525, 206.557437)"><g><path d="M 11.140625 -38.375 C 11.066406 -37.382812 11.6875 -36.890625 13 -36.890625 L 13.890625 -34.921875 L 13.375 -34.4375 L 13.859375 -34.4375 C 11.503906 -27.488281 10.066406 -19.453125 9.546875 -10.328125 L 9.375 -7.375 L 9.875 -6.890625 L 9.84375 -6.390625 L 9.3125 -5.90625 L 9.8125 -5.90625 L 9.296875 -5.40625 L 9.578125 -1.96875 L 9.515625 -0.984375 C 7.765625 1.140625 6.847656 2.78125 6.765625 3.9375 L 4.796875 3.9375 L 2.4375 2.953125 L 3.125 -0.484375 L 1.25 -2.453125 L 2.140625 -9.84375 L 2.640625 -18.6875 L 3.703125 -20.171875 L 3.8125 -22.140625 L 3.359375 -22.625 L 3.390625 -23.125 L 4.375 -23.125 L 4.40625 -23.609375 L 3.9375 -24.109375 L 5.9375 -33.453125 L 5.4375 -33.453125 L 5.96875 -33.9375 L 6.109375 -36.890625 L 5.640625 -37.390625 L 5.671875 -37.875 Z M 5.703125 -29.515625 L 5.53125 -26.078125 L 6.015625 -26.078125 L 6.1875 -29.515625 Z M 4.953125 -24.59375 L 4.78125 -21.640625 L 5.265625 -21.640625 L 5.4375 -24.59375 Z M 4.203125 -20.171875 L 4.046875 -17.21875 L 4.546875 -17.21875 L 4.6875 -20.171875 Z M 4.109375 -0.484375 L 3.96875 1.96875 L 4.984375 0.984375 L 5.09375 -0.484375 Z M 4.109375 -0.484375 "/></g></g></g><g fill="#000000" fill-opacity="1"><g transform="translate(244.952772, 206.557437)"><g><path d="M 19.59375 -40.796875 C 19.800781 -39.816406 21.113281 -39.328125 23.53125 -39.328125 L 27.46875 -22.109375 L 30.90625 -22.109375 L 30.90625 -21.609375 L 27.953125 -21.125 L 27.953125 -20.640625 C 28.941406 -20.640625 29.4375 -20.3125 29.4375 -19.65625 L 33.359375 -19.65625 L 33.359375 -19.15625 C 33.359375 -18.425781 31.722656 -17.769531 28.453125 -17.1875 L 29.4375 -14.234375 L 28.9375 -12.765625 L 29.4375 -9.8125 L 28.9375 -9.3125 L 29.4375 -9.3125 L 28.9375 -8.828125 L 29.4375 -2.921875 L 29.4375 0.03125 L 28.9375 -0.46875 L 28.453125 -0.46875 L 29.921875 6.921875 L 28.9375 6.921875 C 28.9375 5.929688 28.609375 5.4375 27.953125 5.4375 L 27.953125 5.9375 L 28.453125 7.40625 L 27.953125 7.40625 L 27.46875 6.921875 L 26.96875 6.921875 C 26.96875 7.898438 26.640625 8.390625 25.984375 8.390625 L 23.53125 0.03125 L 23.03125 0.03125 L 23.03125 2 L 22.546875 2 L 21.5625 -3.90625 L 23.03125 -2.921875 L 23.03125 -3.421875 C 22.757812 -6.367188 22.269531 -7.84375 21.5625 -7.84375 L 22.046875 -8.328125 L 22.046875 -9.8125 L 21.0625 -9.8125 L 21.0625 -8.328125 L 20.578125 -8.328125 L 20.578125 -10.296875 L 21.0625 -10.796875 L 20.578125 -10.796875 L 20.078125 -10.296875 L 20.078125 -12.265625 L 20.578125 -12.265625 L 21.0625 -11.78125 L 21.5625 -11.78125 L 21.0625 -12.265625 L 21.0625 -15.21875 L 10.25 -12.765625 L 10.25 -11.78125 L 13.6875 -12.765625 L 15.65625 -12.265625 L 18.109375 -12.765625 L 18.109375 -11.78125 C 11.222656 -10.539062 7.78125 -8.898438 7.78125 -6.859375 C 6.914062 -3.253906 5.929688 -0.957031 4.828125 0.03125 L 4.828125 1.015625 L 3.359375 1.015625 L 2.859375 0.515625 L 2.375 0.515625 L 2.375 1.015625 L 0.890625 0.03125 L 1.875 -2.921875 L 1.390625 -2.921875 C 0.398438 -2.921875 -0.09375 -1.609375 -0.09375 1.015625 L -1.078125 0.03125 L -0.578125 -2.921875 L -2.046875 -4.40625 L 6.3125 -24.5625 L 6.796875 -24.5625 C 6.796875 -23.582031 7.125 -23.09375 7.78125 -23.09375 L 8.28125 -25.546875 L 7.78125 -25.0625 L 7.296875 -25.0625 L 7.296875 -27.03125 L 7.78125 -29.484375 L 8.28125 -29 L 8.765625 -29 L 8.28125 -29.484375 L 8.28125 -29.984375 L 9.265625 -31.953125 L 9.75 -31.953125 L 10.25 -31.453125 L 10.734375 -31.453125 L 10.734375 -31.953125 C 10.734375 -32.609375 10.242188 -32.9375 9.265625 -32.9375 L 11.71875 -39.8125 L 13.6875 -39.8125 L 13.203125 -39.328125 L 13.203125 -38.828125 C 15.472656 -40.140625 17.601562 -40.796875 19.59375 -40.796875 Z M 16.640625 -29.484375 L 12.703125 -19.15625 L 13.6875 -19.15625 C 16.96875 -19.15625 18.769531 -20.140625 19.09375 -22.109375 L 17.125 -29.484375 Z M 12.21875 -26.53125 L 11.234375 -23.09375 L 10.734375 -23.578125 L 10.25 -23.578125 L 10.734375 -21.609375 L 11.234375 -21.609375 L 12.703125 -26.046875 L 12.703125 -26.53125 Z M 6.796875 -22.109375 L 6.3125 -21.609375 L 6.3125 -20.640625 L 6.796875 -20.640625 L 7.296875 -22.109375 Z M 9.75 -20.140625 L 9.265625 -18.171875 L 9.75 -18.171875 L 10.25 -18.671875 L 10.25 -20.140625 Z M 5.328125 -19.65625 L 4.828125 -17.6875 L 5.328125 -17.6875 L 6.3125 -19.65625 Z M 13.6875 -18.171875 L 13.6875 -17.6875 L 14.671875 -17.6875 C 17.617188 -18.007812 19.09375 -18.5 19.09375 -19.15625 L 18.609375 -19.15625 Z M 20.578125 -7.34375 L 21.5625 -7.34375 L 21.5625 -4.40625 L 21.0625 -4.40625 Z M 27.46875 -3.90625 L 27.46875 -2.921875 L 27.953125 -0.953125 L 28.453125 -0.953125 L 28.453125 -1.9375 L 27.953125 -3.90625 Z M 22.546875 -2.4375 L 22.546875 -1.453125 L 24.015625 -1.9375 L 24.015625 -2.921875 Z M 22.546875 -2.4375 "/></g></g></g><g fill="#000000" fill-opacity="1"><g transform="translate(265.009617, 239.129279)"><g><path d="M 8.28125 -17.25 C 8.375 -16.832031 8.925781 -16.625 9.9375 -16.625 L 11.609375 -9.34375 L 13.0625 -9.34375 L 13.0625 -9.140625 L 11.8125 -8.921875 L 11.8125 -8.71875 C 12.226562 -8.71875 12.4375 -8.578125 12.4375 -8.296875 L 14.09375 -8.296875 L 14.09375 -8.09375 C 14.09375 -7.78125 13.398438 -7.503906 12.015625 -7.265625 L 12.4375 -6.015625 L 12.234375 -5.390625 L 12.4375 -4.140625 L 12.234375 -3.9375 L 12.4375 -3.9375 L 12.234375 -3.734375 L 12.4375 -1.234375 L 12.4375 0.015625 L 12.234375 -0.203125 L 12.015625 -0.203125 L 12.640625 2.921875 L 12.234375 2.921875 C 12.234375 2.503906 12.09375 2.296875 11.8125 2.296875 L 11.8125 2.5 L 12.015625 3.125 L 11.8125 3.125 L 11.609375 2.921875 L 11.390625 2.921875 C 11.390625 3.335938 11.253906 3.546875 10.984375 3.546875 L 9.9375 0.015625 L 9.734375 0.015625 L 9.734375 0.84375 L 9.53125 0.84375 L 9.109375 -1.65625 L 9.734375 -1.234375 L 9.734375 -1.4375 C 9.617188 -2.6875 9.410156 -3.3125 9.109375 -3.3125 L 9.3125 -3.515625 L 9.3125 -4.140625 L 8.90625 -4.140625 L 8.90625 -3.515625 L 8.703125 -3.515625 L 8.703125 -4.359375 L 8.90625 -4.5625 L 8.703125 -4.5625 L 8.484375 -4.359375 L 8.484375 -5.1875 L 8.703125 -5.1875 L 8.90625 -4.984375 L 9.109375 -4.984375 L 8.90625 -5.1875 L 8.90625 -6.4375 L 4.328125 -5.390625 L 4.328125 -4.984375 L 5.78125 -5.390625 L 6.609375 -5.1875 L 7.65625 -5.390625 L 7.65625 -4.984375 C 4.75 -4.453125 3.296875 -3.757812 3.296875 -2.90625 C 2.921875 -1.375 2.503906 -0.398438 2.046875 0.015625 L 2.046875 0.421875 L 1.421875 0.421875 L 1.203125 0.21875 L 1 0.21875 L 1 0.421875 L 0.375 0.015625 L 0.796875 -1.234375 L 0.59375 -1.234375 C 0.175781 -1.234375 -0.03125 -0.679688 -0.03125 0.421875 L -0.453125 0.015625 L -0.25 -1.234375 L -0.875 -1.859375 L 2.671875 -10.390625 L 2.875 -10.390625 C 2.875 -9.972656 3.015625 -9.765625 3.296875 -9.765625 L 3.5 -10.796875 L 3.296875 -10.59375 L 3.078125 -10.59375 L 3.078125 -11.421875 L 3.296875 -12.46875 L 3.5 -12.25 L 3.703125 -12.25 L 3.5 -12.46875 L 3.5 -12.671875 L 3.90625 -13.5 L 4.125 -13.5 L 4.328125 -13.296875 L 4.53125 -13.296875 L 4.53125 -13.5 C 4.53125 -13.78125 4.320312 -13.921875 3.90625 -13.921875 L 4.953125 -16.828125 L 5.78125 -16.828125 L 5.578125 -16.625 L 5.578125 -16.40625 C 6.535156 -16.96875 7.4375 -17.25 8.28125 -17.25 Z M 7.03125 -12.46875 L 5.375 -8.09375 L 5.78125 -8.09375 C 7.164062 -8.09375 7.929688 -8.507812 8.078125 -9.34375 L 7.234375 -12.46875 Z M 5.15625 -11.21875 L 4.75 -9.765625 L 4.53125 -9.96875 L 4.328125 -9.96875 L 4.53125 -9.140625 L 4.75 -9.140625 L 5.375 -11 L 5.375 -11.21875 Z M 2.875 -9.34375 L 2.671875 -9.140625 L 2.671875 -8.71875 L 2.875 -8.71875 L 3.078125 -9.34375 Z M 4.125 -8.515625 L 3.90625 -7.6875 L 4.125 -7.6875 L 4.328125 -7.890625 L 4.328125 -8.515625 Z M 2.25 -8.296875 L 2.046875 -7.46875 L 2.25 -7.46875 L 2.671875 -8.296875 Z M 5.78125 -7.6875 L 5.78125 -7.46875 L 6.203125 -7.46875 C 7.453125 -7.613281 8.078125 -7.820312 8.078125 -8.09375 L 7.859375 -8.09375 Z M 8.703125 -3.109375 L 9.109375 -3.109375 L 9.109375 -1.859375 L 8.90625 -1.859375 Z M 11.609375 -1.65625 L 11.609375 -1.234375 L 11.8125 -0.40625 L 12.015625 -0.40625 L 12.015625 -0.8125 L 11.8125 -1.65625 Z M 9.53125 -1.03125 L 9.53125 -0.609375 L 10.15625 -0.8125 L 10.15625 -1.234375 Z M 9.53125 -1.03125 "/></g></g></g><g fill="#000000" fill-opacity="1"><g transform="translate(279.681644, 239.129279)"><g><path d="M 3.0625 -16.34375 L 3.90625 -16.34375 L 4.53125 -15.9375 L 5.984375 -16.140625 C 8.390625 -16.140625 10.609375 -14.753906 12.640625 -11.984375 L 13.671875 -9.90625 L 13.46875 -9.703125 L 13.671875 -8.65625 L 13.671875 -7.625 C 13.671875 -4.0625 10.757812 -1.359375 4.9375 0.484375 L 2.859375 0.703125 C 2.859375 0.347656 2.582031 0.140625 2.03125 0.078125 L 2.03125 0.90625 L 1.40625 0.90625 L 1.40625 -0.34375 L 1.203125 -0.546875 L 1.40625 -0.765625 L 1.40625 -0.96875 C 0.570312 -1.539062 0.15625 -2.023438 0.15625 -2.421875 C 0.570312 -8.703125 1.265625 -13.273438 2.234375 -16.140625 L 2.453125 -16.140625 L 2.65625 -15.9375 Z M 2.234375 -14.265625 L 1.203125 -8.25 L 1.203125 -8.03125 L 1.40625 -8.03125 L 2.453125 -13.859375 L 2.453125 -14.265625 Z M 5.5625 -12.8125 C 5.5625 -12.539062 5.285156 -12.40625 4.734375 -12.40625 C 4.179688 -9.875 3.765625 -6.960938 3.484375 -3.671875 C 4.296875 -3.671875 6.375 -4.363281 9.71875 -5.75 L 9.71875 -5.953125 L 9.3125 -5.953125 C 10.414062 -7.085938 10.96875 -8.265625 10.96875 -9.484375 L 10.96875 -10.109375 C 10.96875 -11.640625 9.929688 -12.539062 7.859375 -12.8125 Z M 9.71875 -12.8125 L 9.71875 -12.609375 L 10.546875 -12.1875 L 10.546875 -12.40625 L 9.9375 -12.8125 Z M 11.59375 -9.90625 L 11.390625 -7.40625 L 11.796875 -7.40625 L 11.796875 -8.03125 L 12.015625 -8.859375 L 11.796875 -9.90625 Z M 13.046875 -8.25 L 12.015625 -4.921875 L 12.015625 -4.703125 L 12.21875 -4.703125 L 13.25 -7.828125 L 13.25 -8.25 Z M 10.96875 -6.78125 L 10.546875 -5.953125 L 10.765625 -5.953125 L 11.171875 -6.78125 Z M 9.71875 -3.046875 C 10.050781 -3.097656 10.535156 -3.515625 11.171875 -4.296875 L 11.171875 -4.5 Z M 4.9375 -1.796875 L 4.9375 -1.59375 L 5.765625 -1.59375 L 6.8125 -2 L 6.8125 -2.21875 L 6.609375 -2.21875 Z M 3.28125 -1.59375 L 3.484375 -0.96875 L 3.90625 -0.96875 L 4.3125 -1.375 L 4.3125 -1.59375 L 4.109375 -1.59375 L 3.484375 -1.375 Z M 0.984375 -0.34375 L 1.203125 -0.34375 L 1.203125 -0.140625 L 0.78125 0.28125 L 0.578125 0.28125 L 0.578125 0.078125 Z M 0.984375 -0.34375 "/></g></g></g><g fill="#000000" fill-opacity="1"><g transform="translate(293.632297, 239.129279)"><g><path d="M 6.671875 -16.59375 C 7.046875 -16.320312 8.210938 -16.1875 10.171875 -16.1875 L 10.15625 -15.96875 L 8.703125 -15.96875 L 8.703125 -15.765625 C 10.429688 -15.765625 11.515625 -15.347656 11.953125 -14.515625 L 11.921875 -14.09375 L 10.890625 -14.09375 L 10.875 -13.890625 L 12.3125 -13.6875 L 12.296875 -13.484375 L 11.0625 -13.484375 L 11.046875 -13.265625 C 11.460938 -13.265625 11.660156 -13.128906 11.640625 -12.859375 C 9.171875 -12.859375 6.96875 -11.957031 5.03125 -10.15625 L 5.015625 -9.9375 C 7.691406 -9.21875 9.816406 -7.625 11.390625 -5.15625 L 11.375 -4.953125 C 10.863281 -3.160156 9.445312 -1.5 7.125 0.03125 L 5.859375 0.25 L 5.84375 0.453125 L 6.265625 0.453125 C 6.242188 0.828125 4.972656 1.242188 2.453125 1.703125 L 2.46875 1.28125 L 3.515625 1.28125 L 3.53125 1.078125 C 2.644531 1.078125 1.84375 0.59375 1.125 -0.375 C 0.507812 -0.695312 0.203125 -1.304688 0.203125 -2.203125 C 0.203125 -2.285156 0.203125 -2.367188 0.203125 -2.453125 L 0.859375 -2.875 L 1.453125 -2.453125 L 1.875 -2.453125 C 5.78125 -3.066406 7.796875 -4.316406 7.921875 -6.203125 C 6.285156 -7.035156 5.203125 -7.453125 4.671875 -7.453125 L 4.65625 -7.234375 L 2.625 -8.078125 L 2.8125 -7.859375 L 2.796875 -7.453125 C 1.066406 -8.722656 0.222656 -9.691406 0.265625 -10.359375 L 1.890625 -13.265625 L 2.984375 -14.09375 L 2.953125 -13.6875 Z M 3.84375 -10.984375 L 3.828125 -10.78125 L 7.5 -13.0625 L 9.1875 -13.484375 L 9.203125 -13.890625 L 8.796875 -13.890625 C 6.597656 -13.078125 4.945312 -12.109375 3.84375 -10.984375 Z M 4.984375 -2.453125 L 5.203125 -2.453125 L 5.640625 -2.875 L 5.4375 -2.875 Z M 8.734375 -2.453125 L 7.84375 -1.421875 L 8.046875 -1.421875 L 8.9375 -2.453125 Z M 6.125 -0.796875 L 6.125 -0.59375 L 6.328125 -0.59375 L 7.203125 -1.203125 Z M 3.765625 0.65625 L 3.75 0.875 L 4.59375 0.875 L 5.640625 0.65625 L 5.640625 0.453125 L 5.4375 0.453125 Z M 3.765625 0.65625 "/></g></g></g></svg>